<svg width="12" height="12" viewBox="0 0 12 12" fill="none" xmlns="http://www.w3.org/2000/svg">
<path d="M9.84375 5.625V8.90625C9.84375 9.15489 9.74498 9.39335 9.56916 9.56916C9.39335 9.74498 9.15489 9.84375 8.90625 9.84375H2.34375C2.09511 9.84375 1.85665 9.74498 1.68084 9.56916C1.50502 9.39335 1.40625 9.15489 1.40625 8.90625V5.625H9.84375ZM7.5 1.40625C7.62432 1.40625 7.74355 1.45564 7.83146 1.54354C7.91936 1.63145 7.96875 1.75068 7.96875 1.875V2.34375H8.90625C9.15489 2.34375 9.39335 2.44252 9.56916 2.61834C9.74498 2.79415 9.84375 3.03261 9.84375 3.28125V4.6875H1.40625V3.28125C1.40625 3.03261 1.50502 2.79415 1.68084 2.61834C1.85665 2.44252 2.09511 2.34375 2.34375 2.34375H3.28125V1.875C3.28125 1.75068 3.33064 1.63145 3.41854 1.54354C3.50645 1.45564 3.62568 1.40625 3.75 1.40625C3.87432 1.40625 3.99355 1.45564 4.08146 1.54354C4.16936 1.63145 4.21875 1.75068 4.21875 1.875V2.34375H7.03125V1.875C7.03125 1.75068 7.08064 1.63145 7.16854 1.54354C7.25645 1.45564 7.37568 1.40625 7.5 1.40625Z" fill="#2463EB"/>
</svg>
