<svg width="12" height="12" viewBox="0 0 12 12" fill="none" xmlns="http://www.w3.org/2000/svg">
<path fill-rule="evenodd" clip-rule="evenodd" d="M5.631 11.067C5.631 11.067 2 8.009 2 5C2 3.93913 2.42143 2.92172 3.17157 2.17157C3.92172 1.42143 4.93913 1 6 1C7.06087 1 8.07828 1.42143 8.82843 2.17157C9.57857 2.92172 10 3.93913 10 5C10 8.009 6.369 11.067 6.369 11.067C6.167 11.253 5.8345 11.251 5.631 11.067ZM6 6.75C6.22981 6.75 6.45738 6.70474 6.6697 6.61679C6.88202 6.52884 7.07493 6.39994 7.23744 6.23744C7.39994 6.07493 7.52884 5.88202 7.61679 5.6697C7.70474 5.45738 7.75 5.22981 7.75 5C7.75 4.77019 7.70474 4.54262 7.61679 4.3303C7.52884 4.11798 7.39994 3.92507 7.23744 3.76256C7.07493 3.60006 6.88202 3.47116 6.6697 3.38321C6.45738 3.29527 6.22981 3.25 6 3.25C5.53587 3.25 5.09075 3.43437 4.76256 3.76256C4.43437 4.09075 4.25 4.53587 4.25 5C4.25 5.46413 4.43437 5.90925 4.76256 6.23744C5.09075 6.56563 5.53587 6.75 6 6.75Z" fill="#2463EB"/>
</svg>
