<svg width="20" height="20" viewBox="0 0 20 20" fill="none" xmlns="http://www.w3.org/2000/svg">
<path fill-rule="evenodd" clip-rule="evenodd" d="M11.6532 2.11841C11.7257 2.25925 11.744 2.44008 11.7798 2.80175C11.8482 3.48508 11.8823 3.82675 12.0257 4.01508C12.115 4.13202 12.2336 4.22322 12.3696 4.27943C12.5056 4.33563 12.654 4.35484 12.7998 4.33508C13.0332 4.30425 13.2998 4.08675 13.8315 3.65175C14.1123 3.42091 14.2532 3.30591 14.404 3.25758C14.5961 3.1962 14.804 3.20656 14.989 3.28675C15.1348 3.35008 15.264 3.47841 15.5198 3.73508L16.2648 4.48008C16.5215 4.73675 16.6498 4.86508 16.7132 5.01091C16.7934 5.19596 16.8037 5.40381 16.7423 5.59591C16.694 5.74675 16.579 5.88758 16.349 6.16841C15.9132 6.70091 15.6957 6.96675 15.664 7.20091C15.6445 7.34666 15.6639 7.49498 15.7203 7.6308C15.7766 7.76662 15.8679 7.88511 15.9848 7.97425C16.1723 8.11758 16.5148 8.15175 17.199 8.22008C17.5598 8.25591 17.7407 8.27425 17.8823 8.34675C18.061 8.43941 18.2002 8.59364 18.274 8.78091C18.3332 8.92841 18.3332 9.11008 18.3332 9.47341V10.5267C18.3332 10.8901 18.3332 11.0717 18.2748 11.2184C18.2008 11.4063 18.061 11.5609 17.8815 11.6534C17.7407 11.7259 17.5598 11.7442 17.1982 11.7801C16.5148 11.8484 16.1732 11.8826 15.9848 12.0259C15.8679 12.1152 15.7767 12.2339 15.7205 12.3699C15.6643 12.5058 15.6451 12.6543 15.6648 12.8001C15.6965 13.0334 15.914 13.3001 16.349 13.8317C16.579 14.1126 16.694 14.2526 16.7423 14.4042C16.8037 14.5964 16.7934 14.8042 16.7132 14.9892C16.6498 15.1351 16.5215 15.2634 16.2648 15.5201L15.5198 16.2642C15.2632 16.5217 15.1348 16.6501 14.989 16.7126C14.804 16.7928 14.5961 16.8031 14.404 16.7417C14.2532 16.6934 14.1123 16.5784 13.8315 16.3484C13.299 15.9134 13.0332 15.6959 12.7998 15.6651C12.654 15.6453 12.5056 15.6645 12.3696 15.7207C12.2336 15.7769 12.115 15.8681 12.0257 15.9851C11.8823 16.1726 11.8482 16.5142 11.7798 17.1984C11.744 17.5601 11.7257 17.7409 11.6532 17.8817C11.5608 18.0611 11.4066 18.2008 11.219 18.2751C11.0715 18.3334 10.8898 18.3334 10.5265 18.3334H9.47317C9.10984 18.3334 8.92817 18.3334 8.7815 18.2751C8.59363 18.201 8.43905 18.0612 8.3465 17.8817C8.274 17.7409 8.25567 17.5601 8.21984 17.1984C8.1515 16.5151 8.11734 16.1734 7.974 15.9851C7.88477 15.8683 7.76624 15.7772 7.63042 15.721C7.49461 15.6648 7.34634 15.6455 7.20067 15.6651C6.9665 15.6959 6.70067 15.9134 6.16817 16.3484C5.88734 16.5792 5.7465 16.6942 5.59567 16.7426C5.40357 16.804 5.19572 16.7936 5.01067 16.7134C4.86484 16.6501 4.73567 16.5217 4.47984 16.2651L3.73484 15.5201C3.47817 15.2634 3.34984 15.1351 3.2865 14.9892C3.20631 14.8042 3.19595 14.5964 3.25734 14.4042C3.30567 14.2534 3.42067 14.1126 3.65067 13.8317C4.0865 13.2992 4.304 13.0334 4.33484 12.7992C4.35444 12.6536 4.33516 12.5053 4.27896 12.3695C4.22276 12.2337 4.13164 12.1151 4.01484 12.0259C3.82734 11.8826 3.48484 11.8484 2.80067 11.7801C2.43984 11.7442 2.259 11.7259 2.11734 11.6534C1.93863 11.5608 1.7995 11.4065 1.72567 11.2192C1.6665 11.0717 1.6665 10.8901 1.6665 10.5267V9.47341C1.6665 9.11008 1.6665 8.92841 1.72484 8.78175C1.79891 8.59388 1.93868 8.4393 2.11817 8.34675C2.259 8.27425 2.43984 8.25591 2.8015 8.22008C3.48484 8.15175 3.82734 8.11758 4.01484 7.97425C4.13179 7.88511 4.22307 7.76662 4.27942 7.6308C4.33577 7.49498 4.35518 7.34666 4.33567 7.20091C4.304 6.96675 4.08567 6.70091 3.65067 6.16758C3.42067 5.88675 3.30567 5.74675 3.25734 5.59508C3.19595 5.40298 3.20631 5.19513 3.2865 5.01008C3.34984 4.86508 3.47817 4.73591 3.73484 4.47925L4.47984 3.73508C4.7365 3.47841 4.86484 3.34925 5.01067 3.28675C5.19572 3.20656 5.40357 3.1962 5.59567 3.25758C5.7465 3.30591 5.88734 3.42091 6.16817 3.65091C6.70067 4.08591 6.9665 4.30341 7.19984 4.33508C7.34585 4.3549 7.4945 4.33564 7.63065 4.27928C7.76679 4.22292 7.88556 4.13147 7.97484 4.01425C8.1165 3.82675 8.1515 3.48508 8.21984 2.80091C8.25567 2.44008 8.274 2.25925 8.3465 2.11758C8.43901 1.93856 8.59325 1.79912 8.78067 1.72508C8.92817 1.66675 9.10984 1.66675 9.47317 1.66675H10.5265C10.8898 1.66675 11.0715 1.66675 11.2182 1.72508C11.406 1.79915 11.5606 1.93893 11.6532 2.11841ZM9.99984 13.3334C10.8839 13.3334 11.7317 12.9822 12.3569 12.3571C12.982 11.732 13.3332 10.8841 13.3332 10.0001C13.3332 9.11603 12.982 8.26818 12.3569 7.64306C11.7317 7.01794 10.8839 6.66675 9.99984 6.66675C9.11578 6.66675 8.26794 7.01794 7.64281 7.64306C7.01769 8.26818 6.6665 9.11603 6.6665 10.0001C6.6665 10.8841 7.01769 11.732 7.64281 12.3571C8.26794 12.9822 9.11578 13.3334 9.99984 13.3334Z" fill="#2463EB"/>
</svg>
