<svg width="14" height="14" viewBox="0 0 14 14" fill="none" xmlns="http://www.w3.org/2000/svg">
<path d="M7 9.33333C6.67917 9.33333 6.40461 9.21919 6.17633 8.99092C5.94806 8.76264 5.83372 8.48789 5.83333 8.16667C5.83294 7.84544 5.94728 7.57089 6.17633 7.343C6.40539 7.11511 6.67994 7.00078 7 7C7.32006 6.99922 7.59481 7.11356 7.82425 7.343C8.05369 7.57244 8.16783 7.847 8.16667 8.16667C8.1655 8.48633 8.05136 8.76108 7.82425 8.99092C7.59714 9.22075 7.32239 9.33489 7 9.33333ZM4.30208 4.08333H9.69792L10.4417 2.59583C10.5389 2.40139 10.5315 2.21181 10.4195 2.02708C10.3075 1.84236 10.1399 1.75 9.91667 1.75H4.08333C3.85972 1.75 3.69211 1.84236 3.5805 2.02708C3.46889 2.21181 3.4615 2.40139 3.55833 2.59583L4.30208 4.08333ZM4.9 12.25H9.1C9.975 12.25 10.7187 11.9463 11.3312 11.3388C11.9437 10.7314 12.25 9.98511 12.25 9.1C12.25 8.73056 12.1868 8.37083 12.0604 8.02083C11.934 7.67083 11.7542 7.35486 11.5208 7.07292L10.0042 5.25H3.99583L2.47917 7.07292C2.24583 7.35486 2.06597 7.67083 1.93958 8.02083C1.81319 8.37083 1.75 8.73056 1.75 9.1C1.75 9.98472 2.05392 10.731 2.66175 11.3388C3.26958 11.9467 4.01567 12.2504 4.9 12.25Z" fill="#2463EB"/>
</svg>
