<svg width="13" height="13" viewBox="0 0 13 13" fill="none" xmlns="http://www.w3.org/2000/svg">
<path fill-rule="evenodd" clip-rule="evenodd" d="M4.87533 1.08337C4.58801 1.08337 4.31246 1.19751 4.10929 1.40067C3.90613 1.60384 3.79199 1.87939 3.79199 2.16671V2.70837C3.79199 2.91312 3.84887 3.10487 3.94799 3.26846L3.03366 3.95421C2.76457 4.15603 2.54616 4.41772 2.39573 4.71858C2.24531 5.01943 2.16699 5.35118 2.16699 5.68754V9.75004C2.16699 10.3247 2.39527 10.8758 2.80159 11.2821C3.20792 11.6884 3.75902 11.9167 4.33366 11.9167H8.66699C9.24163 11.9167 9.79273 11.6884 10.1991 11.2821C10.6054 10.8758 10.8337 10.3247 10.8337 9.75004V5.68754C10.8337 5.35118 10.7553 5.01943 10.6049 4.71858C10.4545 4.41772 10.2361 4.15603 9.96699 3.95421L9.05266 3.26846C9.15472 3.09946 9.20866 2.9058 9.20866 2.70837V2.16671C9.20866 1.87939 9.09452 1.60384 8.89136 1.40067C8.68819 1.19751 8.41264 1.08337 8.12533 1.08337H4.87533ZM8.12533 2.70837V2.16671H4.87533V2.70837H8.12533ZM9.75033 7.04171H3.25033V5.95837H9.75033V7.04171ZM3.25033 8.12504H9.75033V9.20837H3.25033V8.12504Z" fill="#2463EB"/>
</svg>
